<svg id="visual" viewBox="0 0 960 540" width="960" height="540" xmlns="http://www.w3.org/2000/svg" xmlns:xlink="http://www.w3.org/1999/xlink" version="1.1"><rect x="0" y="0" width="960" height="540" fill="#002d6a"></rect><path d="M0 388L22.8 378.7C45.7 369.3 91.3 350.7 137 346.8C182.7 343 228.3 354 274 353.8C319.7 353.7 365.3 342.3 411.2 345.7C457 349 503 367 548.8 367C594.7 367 640.3 349 686 342.2C731.7 335.3 777.3 339.7 823 337.8C868.7 336 914.3 328 937.2 324L960 320L960 541L937.2 541C914.3 541 868.7 541 823 541C777.3 541 731.7 541 686 541C640.3 541 594.7 541 548.8 541C503 541 457 541 411.2 541C365.3 541 319.7 541 274 541C228.3 541 182.7 541 137 541C91.3 541 45.7 541 22.8 541L0 541Z" fill="#468dec"></path><path d="M0 385L22.8 382.5C45.7 380 91.3 375 137 376.3C182.7 377.7 228.3 385.3 274 392.7C319.7 400 365.3 407 411.2 410C457 413 503 412 548.8 406.8C594.7 401.7 640.3 392.3 686 388.2C731.7 384 777.3 385 823 389C868.7 393 914.3 400 937.2 403.5L960 407L960 541L937.2 541C914.3 541 868.7 541 823 541C777.3 541 731.7 541 686 541C640.3 541 594.7 541 548.8 541C503 541 457 541 411.2 541C365.3 541 319.7 541 274 541C228.3 541 182.7 541 137 541C91.3 541 45.7 541 22.8 541L0 541Z" fill="#6fa1ec"></path><path d="M0 411L22.8 413.5C45.7 416 91.3 421 137 420.7C182.7 420.3 228.3 414.7 274 412C319.7 409.3 365.3 409.7 411.2 409.2C457 408.7 503 407.3 548.8 413.2C594.7 419 640.3 432 686 441C731.7 450 777.3 455 823 453C868.7 451 914.3 442 937.2 437.5L960 433L960 541L937.2 541C914.3 541 868.7 541 823 541C777.3 541 731.7 541 686 541C640.3 541 594.7 541 548.8 541C503 541 457 541 411.2 541C365.3 541 319.7 541 274 541C228.3 541 182.7 541 137 541C91.3 541 45.7 541 22.8 541L0 541Z" fill="#92b5eb"></path><path d="M0 478L22.8 477.5C45.7 477 91.3 476 137 468.5C182.7 461 228.3 447 274 443.3C319.7 439.7 365.3 446.3 411.2 452.2C457 458 503 463 548.8 462.8C594.7 462.7 640.3 457.3 686 454.3C731.7 451.3 777.3 450.7 823 455.3C868.7 460 914.3 470 937.2 475L960 480L960 541L937.2 541C914.3 541 868.7 541 823 541C777.3 541 731.7 541 686 541C640.3 541 594.7 541 548.8 541C503 541 457 541 411.2 541C365.3 541 319.7 541 274 541C228.3 541 182.7 541 137 541C91.3 541 45.7 541 22.8 541L0 541Z" fill="#b3c9ea"></path><path d="M0 504L22.8 505.2C45.7 506.3 91.3 508.7 137 508.2C182.7 507.7 228.3 504.3 274 501.2C319.7 498 365.3 495 411.2 493C457 491 503 490 548.8 487C594.7 484 640.3 479 686 482.2C731.7 485.3 777.3 496.7 823 497.3C868.7 498 914.3 488 937.2 483L960 478L960 541L937.2 541C914.3 541 868.7 541 823 541C777.3 541 731.7 541 686 541C640.3 541 594.7 541 548.8 541C503 541 457 541 411.2 541C365.3 541 319.7 541 274 541C228.3 541 182.7 541 137 541C91.3 541 45.7 541 22.8 541L0 541Z" fill="#d4dce8"></path></svg>