<svg id="visual" viewBox="0 0 960 540" width="960" height="540" xmlns="http://www.w3.org/2000/svg" xmlns:xlink="http://www.w3.org/1999/xlink" version="1.1"><path d="M0 152L20 147.5C40 143 80 134 120 130.5C160 127 200 129 240 136.2C280 143.3 320 155.7 360 155.7C400 155.7 440 143.3 480 141.7C520 140 560 149 600 156.2C640 163.3 680 168.7 720 174C760 179.3 800 184.7 840 182.8C880 181 920 172 940 167.5L960 163L960 0L940 0C920 0 880 0 840 0C800 0 760 0 720 0C680 0 640 0 600 0C560 0 520 0 480 0C440 0 400 0 360 0C320 0 280 0 240 0C200 0 160 0 120 0C80 0 40 0 20 0L0 0Z" fill="#ffffff"></path><path d="M0 217L20 213.3C40 209.7 80 202.3 120 201.5C160 200.7 200 206.3 240 215.3C280 224.3 320 236.7 360 235.7C400 234.7 440 220.3 480 215C520 209.7 560 213.3 600 218.8C640 224.3 680 231.7 720 237C760 242.3 800 245.7 840 246.5C880 247.3 920 245.7 940 244.8L960 244L960 161L940 165.5C920 170 880 179 840 180.8C800 182.7 760 177.3 720 172C680 166.7 640 161.3 600 154.2C560 147 520 138 480 139.7C440 141.3 400 153.7 360 153.7C320 153.7 280 141.3 240 134.2C200 127 160 125 120 128.5C80 132 40 141 20 145.5L0 150Z" fill="#ffeacd"></path><path d="M0 330L20 323.8C40 317.7 80 305.3 120 300.8C160 296.3 200 299.7 240 308.7C280 317.7 320 332.3 360 335.2C400 338 440 329 480 321.7C520 314.3 560 308.7 600 314C640 319.3 680 335.7 720 340.2C760 344.7 800 337.3 840 334.7C880 332 920 334 940 335L960 336L960 242L940 242.8C920 243.7 880 245.3 840 244.5C800 243.7 760 240.3 720 235C680 229.7 640 222.3 600 216.8C560 211.3 520 207.7 480 213C440 218.3 400 232.7 360 233.7C320 234.7 280 222.3 240 213.3C200 204.3 160 198.7 120 199.5C80 200.3 40 207.7 20 211.3L0 215Z" fill="#ffd59b"></path><path d="M0 384L20 380.5C40 377 80 370 120 367.3C160 364.7 200 366.3 240 375.3C280 384.3 320 400.7 360 403.3C400 406 440 395 480 386.8C520 378.7 560 373.3 600 378.8C640 384.3 680 400.7 720 406.2C760 411.7 800 406.3 840 401.8C880 397.3 920 393.7 940 391.8L960 390L960 334L940 333C920 332 880 330 840 332.7C800 335.3 760 342.7 720 338.2C680 333.7 640 317.3 600 312C560 306.7 520 312.3 480 319.7C440 327 400 336 360 333.2C320 330.3 280 315.7 240 306.7C200 297.7 160 294.3 120 298.8C80 303.3 40 315.7 20 321.8L0 328Z" fill="#ffc169"></path><path d="M0 541L20 541C40 541 80 541 120 541C160 541 200 541 240 541C280 541 320 541 360 541C400 541 440 541 480 541C520 541 560 541 600 541C640 541 680 541 720 541C760 541 800 541 840 541C880 541 920 541 940 541L960 541L960 388L940 389.8C920 391.7 880 395.3 840 399.8C800 404.3 760 409.7 720 404.2C680 398.7 640 382.3 600 376.8C560 371.3 520 376.7 480 384.8C440 393 400 404 360 401.3C320 398.7 280 382.3 240 373.3C200 364.3 160 362.7 120 365.3C80 368 40 375 20 378.5L0 382Z" fill="#ffad31"></path></svg>