<svg id="visual" viewBox="0 0 960 540" width="960" height="540" xmlns="http://www.w3.org/2000/svg" xmlns:xlink="http://www.w3.org/1999/xlink" version="1.1"><path d="M0 290L22.8 297.5C45.7 305 91.3 320 137 329.5C182.7 339 228.3 343 274 335.2C319.7 327.3 365.3 307.7 411.2 292.7C457 277.7 503 267.3 548.8 266.3C594.7 265.3 640.3 273.7 686 285.3C731.7 297 777.3 312 823 317C868.7 322 914.3 317 937.2 314.5L960 312L960 541L937.2 541C914.3 541 868.7 541 823 541C777.3 541 731.7 541 686 541C640.3 541 594.7 541 548.8 541C503 541 457 541 411.2 541C365.3 541 319.7 541 274 541C228.3 541 182.7 541 137 541C91.3 541 45.7 541 22.8 541L0 541Z" fill="#468dec"></path><path d="M0 324L22.8 331.2C45.7 338.3 91.3 352.7 137 350.5C182.7 348.3 228.3 329.7 274 333C319.7 336.3 365.3 361.7 411.2 363.7C457 365.7 503 344.3 548.8 332.2C594.7 320 640.3 317 686 315.3C731.7 313.7 777.3 313.3 823 319.5C868.7 325.7 914.3 338.3 937.2 344.7L960 351L960 541L937.2 541C914.3 541 868.7 541 823 541C777.3 541 731.7 541 686 541C640.3 541 594.7 541 548.8 541C503 541 457 541 411.2 541C365.3 541 319.7 541 274 541C228.3 541 182.7 541 137 541C91.3 541 45.7 541 22.8 541L0 541Z" fill="#77a8f2"></path><path d="M0 444L22.8 440.3C45.7 436.7 91.3 429.3 137 426.8C182.7 424.3 228.3 426.7 274 419C319.7 411.3 365.3 393.7 411.2 395C457 396.3 503 416.7 548.8 427.2C594.7 437.7 640.3 438.3 686 433C731.7 427.7 777.3 416.3 823 412.5C868.7 408.7 914.3 412.3 937.2 414.2L960 416L960 541L937.2 541C914.3 541 868.7 541 823 541C777.3 541 731.7 541 686 541C640.3 541 594.7 541 548.8 541C503 541 457 541 411.2 541C365.3 541 319.7 541 274 541C228.3 541 182.7 541 137 541C91.3 541 45.7 541 22.8 541L0 541Z" fill="#a2c4f6"></path><path d="M0 482L22.8 478C45.7 474 91.3 466 137 462.8C182.7 459.7 228.3 461.3 274 460.2C319.7 459 365.3 455 411.2 456.2C457 457.3 503 463.7 548.8 461.7C594.7 459.7 640.3 449.3 686 447C731.7 444.7 777.3 450.3 823 456.2C868.7 462 914.3 468 937.2 471L960 474L960 541L937.2 541C914.3 541 868.7 541 823 541C777.3 541 731.7 541 686 541C640.3 541 594.7 541 548.8 541C503 541 457 541 411.2 541C365.3 541 319.7 541 274 541C228.3 541 182.7 541 137 541C91.3 541 45.7 541 22.8 541L0 541Z" fill="#ccdffa"></path></svg>