<svg id="visual" viewBox="0 0 900 600" width="900" height="600" xmlns="http://www.w3.org/2000/svg" xmlns:xlink="http://www.w3.org/1999/xlink" version="1.1"><rect x="0" y="0" width="900" height="600" fill="#262ea3"></rect><defs><linearGradient id="grad1_0" x1="33.3%" y1="100%" x2="100%" y2="0%"><stop offset="20%" stop-color="#0066ff" stop-opacity="1"></stop><stop offset="80%" stop-color="#0066ff" stop-opacity="1"></stop></linearGradient></defs><defs><linearGradient id="grad1_1" x1="33.3%" y1="100%" x2="100%" y2="0%"><stop offset="20%" stop-color="#0066ff" stop-opacity="1"></stop><stop offset="80%" stop-color="#2449d0" stop-opacity="1"></stop></linearGradient></defs><defs><linearGradient id="grad1_2" x1="33.3%" y1="100%" x2="100%" y2="0%"><stop offset="20%" stop-color="#262ea3" stop-opacity="1"></stop><stop offset="80%" stop-color="#2449d0" stop-opacity="1"></stop></linearGradient></defs><defs><linearGradient id="grad2_0" x1="0%" y1="100%" x2="66.7%" y2="0%"><stop offset="20%" stop-color="#0066ff" stop-opacity="1"></stop><stop offset="80%" stop-color="#0066ff" stop-opacity="1"></stop></linearGradient></defs><defs><linearGradient id="grad2_1" x1="0%" y1="100%" x2="66.7%" y2="0%"><stop offset="20%" stop-color="#2449d0" stop-opacity="1"></stop><stop offset="80%" stop-color="#0066ff" stop-opacity="1"></stop></linearGradient></defs><defs><linearGradient id="grad2_2" x1="0%" y1="100%" x2="66.7%" y2="0%"><stop offset="20%" stop-color="#2449d0" stop-opacity="1"></stop><stop offset="80%" stop-color="#262ea3" stop-opacity="1"></stop></linearGradient></defs><g transform="translate(900, 600)"><path d="M-429 0C-424.7 -46.3 -420.4 -92.5 -405.2 -131.6C-389.9 -170.8 -363.8 -202.8 -347.1 -252.2C-330.3 -301.6 -323 -368.4 -286.1 -393.8C-249.2 -419.2 -182.7 -403.3 -130.1 -400.4C-77.5 -397.5 -38.7 -407.8 0 -418L0 0Z" fill="#273bb9"></path><path d="M-286 0C-283.1 -30.8 -280.2 -61.7 -270.1 -87.8C-260 -113.8 -242.5 -135.2 -231.4 -168.1C-220.2 -201 -215.3 -245.6 -190.7 -262.5C-166.1 -279.5 -121.8 -268.8 -86.7 -266.9C-51.7 -265 -25.8 -271.8 0 -278.7L0 0Z" fill="#1c57e7"></path><path d="M-143 0C-141.6 -15.4 -140.1 -30.8 -135.1 -43.9C-130 -56.9 -121.3 -67.6 -115.7 -84.1C-110.1 -100.5 -107.7 -122.8 -95.4 -131.3C-83.1 -139.7 -60.9 -134.4 -43.4 -133.5C-25.8 -132.5 -12.9 -135.9 0 -139.3L0 0Z" fill="#0066ff"></path></g><g transform="translate(0, 0)"><path d="M486.7 0C452.2 40.9 417.7 81.8 407.1 132.3C396.4 182.7 409.7 242.8 387.5 281.5C365.3 320.3 307.6 337.6 261 359.2C214.4 380.8 178.8 406.6 137.2 422.3C95.6 437.9 47.8 443.5 0 449L0 0Z" fill="#273bb9"></path><path d="M324.5 0C301.5 27.3 278.4 54.5 271.4 88.2C264.3 121.8 273.2 161.9 258.3 187.7C243.5 213.5 205.1 225.1 174 239.5C142.9 253.9 119.2 271.1 91.5 281.5C63.7 292 31.9 295.6 0 299.3L0 0Z" fill="#1c57e7"></path><path d="M162.2 0C150.7 13.6 139.2 27.3 135.7 44.1C132.1 60.9 136.6 80.9 129.2 93.8C121.8 106.8 102.5 112.5 87 119.7C71.5 126.9 59.6 135.5 45.7 140.8C31.9 146 15.9 147.8 0 149.7L0 0Z" fill="#0066ff"></path></g></svg>