<svg id="visual" viewBox="0 0 900 600" width="900" height="600" xmlns="http://www.w3.org/2000/svg" xmlns:xlink="http://www.w3.org/1999/xlink" version="1.1"><rect x="0" y="0" width="900" height="600" fill="#c59cf1"></rect><defs><linearGradient id="grad1_0" x1="33.3%" y1="100%" x2="100%" y2="0%"><stop offset="20%" stop-color="#660aa2" stop-opacity="1"></stop><stop offset="80%" stop-color="#660aa2" stop-opacity="1"></stop></linearGradient></defs><defs><linearGradient id="grad1_1" x1="33.3%" y1="100%" x2="100%" y2="0%"><stop offset="20%" stop-color="#660aa2" stop-opacity="1"></stop><stop offset="80%" stop-color="#c59cf1" stop-opacity="1"></stop></linearGradient></defs><defs><linearGradient id="grad2_0" x1="0%" y1="100%" x2="66.7%" y2="0%"><stop offset="20%" stop-color="#660aa2" stop-opacity="1"></stop><stop offset="80%" stop-color="#660aa2" stop-opacity="1"></stop></linearGradient></defs><defs><linearGradient id="grad2_1" x1="0%" y1="100%" x2="66.7%" y2="0%"><stop offset="20%" stop-color="#c59cf1" stop-opacity="1"></stop><stop offset="80%" stop-color="#660aa2" stop-opacity="1"></stop></linearGradient></defs><g transform="translate(900, 600)"><path d="M-486.7 0C-457.1 -42.4 -427.4 -84.8 -417.5 -135.7C-407.6 -186.5 -417.4 -245.9 -393.8 -286.1C-370.2 -326.3 -313.1 -347.2 -265.1 -364.9C-217.1 -382.5 -178 -396.8 -135.3 -416.6C-92.7 -436.3 -46.3 -461.5 0 -486.7L0 0Z" fill="#955bca"></path><path d="M-243.4 0C-228.5 -21.2 -213.7 -42.4 -208.8 -67.8C-203.8 -93.3 -208.7 -123 -196.9 -143.1C-185.1 -163.1 -156.6 -173.6 -132.5 -182.4C-108.5 -191.2 -89 -198.4 -67.7 -208.3C-46.3 -218.2 -23.2 -230.8 0 -243.4L0 0Z" fill="#660aa2"></path></g><g transform="translate(0, 0)"><path d="M486.7 0C490.6 57.2 494.5 114.4 462.9 150.4C431.3 186.5 364.3 201.4 334.1 242.8C304 284.2 310.8 352.1 285.1 392.4C259.4 432.7 201.3 445.4 148.3 456.5C95.4 467.6 47.7 477.2 0 486.7L0 0Z" fill="#955bca"></path><path d="M243.4 0C245.3 28.6 247.3 57.2 231.5 75.2C215.7 93.2 182.1 100.7 167.1 121.4C152 142.1 155.4 176 142.5 196.2C129.7 216.3 100.6 222.7 74.2 228.3C47.7 233.8 23.9 238.6 0 243.4L0 0Z" fill="#660aa2"></path></g></svg>