<svg id="visual" viewBox="0 0 900 600" width="900" height="600" xmlns="http://www.w3.org/2000/svg" xmlns:xlink="http://www.w3.org/1999/xlink" version="1.1"><rect x="0" y="0" width="900" height="600" fill="#f1ec9c"></rect><defs><linearGradient id="grad1_0" x1="33.3%" y1="100%" x2="100%" y2="0%"><stop offset="20%" stop-color="#fcd43d" stop-opacity="1"></stop><stop offset="80%" stop-color="#fcd43d" stop-opacity="1"></stop></linearGradient></defs><defs><linearGradient id="grad1_1" x1="33.3%" y1="100%" x2="100%" y2="0%"><stop offset="20%" stop-color="#fcd43d" stop-opacity="1"></stop><stop offset="80%" stop-color="#f1ec9c" stop-opacity="1"></stop></linearGradient></defs><defs><linearGradient id="grad2_0" x1="0%" y1="100%" x2="66.7%" y2="0%"><stop offset="20%" stop-color="#fcd43d" stop-opacity="1"></stop><stop offset="80%" stop-color="#fcd43d" stop-opacity="1"></stop></linearGradient></defs><defs><linearGradient id="grad2_1" x1="0%" y1="100%" x2="66.7%" y2="0%"><stop offset="20%" stop-color="#f1ec9c" stop-opacity="1"></stop><stop offset="80%" stop-color="#fcd43d" stop-opacity="1"></stop></linearGradient></defs><g transform="translate(900, 600)"><path d="M-486.7 0C-472 -47.5 -457.3 -95 -445.1 -144.6C-432.9 -194.3 -423.1 -246.1 -393.8 -286.1C-364.5 -326.1 -315.7 -354.3 -268.6 -369.7C-221.5 -385.1 -176.1 -387.8 -131.6 -405.2C-87.2 -422.5 -43.6 -454.6 0 -486.7L0 0Z" fill="#f5e16f"></path><path d="M-243.4 0C-236 -23.7 -228.7 -47.5 -222.5 -72.3C-216.4 -97.1 -211.5 -123 -196.9 -143.1C-182.3 -163.1 -157.9 -177.2 -134.3 -184.9C-110.8 -192.6 -88.1 -193.9 -65.8 -202.6C-43.6 -211.3 -21.8 -227.3 0 -243.4L0 0Z" fill="#fcd43d"></path></g><g transform="translate(0, 0)"><path d="M486.7 0C481.8 51.5 476.8 103 461.3 149.9C445.7 196.8 419.5 239.1 390.8 283.9C362 328.7 330.8 376.1 286.1 393.8C241.4 411.4 183.1 399.4 133.2 409.9C83.2 420.4 41.6 453.6 0 486.7L0 0Z" fill="#f5e16f"></path><path d="M243.4 0C240.9 25.7 238.4 51.5 230.6 74.9C222.8 98.4 209.7 119.5 195.4 142C181 164.4 165.4 188.1 143.1 196.9C120.7 205.7 91.6 199.7 66.6 205C41.6 210.2 20.8 226.8 0 243.4L0 0Z" fill="#fcd43d"></path></g></svg>