<svg id="visual" viewBox="0 0 900 600" width="900" height="600" xmlns="http://www.w3.org/2000/svg" xmlns:xlink="http://www.w3.org/1999/xlink" version="1.1"><rect x="0" y="0" width="900" height="600" fill="#f15454"></rect><defs><linearGradient id="grad1_0" x1="33.3%" y1="0%" x2="100%" y2="100%"><stop offset="20%" stop-color="#c52d2d" stop-opacity="1"></stop><stop offset="80%" stop-color="#c52d2d" stop-opacity="1"></stop></linearGradient></defs><defs><linearGradient id="grad1_1" x1="33.3%" y1="0%" x2="100%" y2="100%"><stop offset="20%" stop-color="#c52d2d" stop-opacity="1"></stop><stop offset="80%" stop-color="#f15454" stop-opacity="1"></stop></linearGradient></defs><defs><linearGradient id="grad2_0" x1="0%" y1="0%" x2="66.7%" y2="100%"><stop offset="20%" stop-color="#c52d2d" stop-opacity="1"></stop><stop offset="80%" stop-color="#c52d2d" stop-opacity="1"></stop></linearGradient></defs><defs><linearGradient id="grad2_1" x1="0%" y1="0%" x2="66.7%" y2="100%"><stop offset="20%" stop-color="#f15454" stop-opacity="1"></stop><stop offset="80%" stop-color="#c52d2d" stop-opacity="1"></stop></linearGradient></defs><g transform="translate(900, 0)"><path d="M0 426C-47.8 433.2 -95.5 440.3 -139.7 429.9C-183.8 419.4 -224.4 391.4 -263.9 363.2C-303.4 335.1 -341.7 306.9 -373 271C-404.2 235 -428.3 191.4 -446 144.9C-463.8 98.5 -475.3 49.2 -486.7 0L0 0Z" fill="#db4140"></path><path d="M0 213C-23.9 216.6 -47.8 220.2 -69.8 214.9C-91.9 209.7 -112.2 195.7 -132 181.6C-151.7 167.6 -170.9 153.5 -186.5 135.5C-202.1 117.5 -214.1 95.7 -223 72.5C-231.9 49.2 -237.6 24.6 -243.4 0L0 0Z" fill="#c52d2d"></path></g><g transform="translate(0, 600)"><path d="M0 -486.7C39.9 -446.5 79.7 -406.2 127.9 -393.7C176.1 -381.2 232.6 -396.5 275.7 -379.4C318.7 -362.4 348.2 -313 367.3 -266.9C386.4 -220.7 394.9 -177.7 411.8 -133.8C428.7 -89.9 453.8 -44.9 479 0L0 0Z" fill="#db4140"></path><path d="M0 -243.4C19.9 -223.2 39.9 -203.1 64 -196.9C88.1 -190.6 116.3 -198.2 137.8 -189.7C159.3 -181.2 174.1 -156.5 183.6 -133.4C193.2 -110.3 197.5 -88.9 205.9 -66.9C214.3 -44.9 226.9 -22.5 239.5 0L0 0Z" fill="#c52d2d"></path></g></svg>