<svg id="visual" viewBox="0 0 900 600" width="900" height="600" xmlns="http://www.w3.org/2000/svg" xmlns:xlink="http://www.w3.org/1999/xlink" version="1.1"><rect x="0" y="0" width="900" height="600" fill="#3eab3e"></rect><defs><linearGradient id="grad1_0" x1="33.3%" y1="0%" x2="100%" y2="100%"><stop offset="20%" stop-color="#1e8d21" stop-opacity="1"></stop><stop offset="80%" stop-color="#1e8d21" stop-opacity="1"></stop></linearGradient></defs><defs><linearGradient id="grad1_1" x1="33.3%" y1="0%" x2="100%" y2="100%"><stop offset="20%" stop-color="#1e8d21" stop-opacity="1"></stop><stop offset="80%" stop-color="#3eab3e" stop-opacity="1"></stop></linearGradient></defs><defs><linearGradient id="grad2_0" x1="0%" y1="0%" x2="66.7%" y2="100%"><stop offset="20%" stop-color="#1e8d21" stop-opacity="1"></stop><stop offset="80%" stop-color="#1e8d21" stop-opacity="1"></stop></linearGradient></defs><defs><linearGradient id="grad2_1" x1="0%" y1="0%" x2="66.7%" y2="100%"><stop offset="20%" stop-color="#3eab3e" stop-opacity="1"></stop><stop offset="80%" stop-color="#1e8d21" stop-opacity="1"></stop></linearGradient></defs><g transform="translate(900, 0)"><path d="M0 486.7C-50.3 475.9 -100.7 465 -144.9 446C-189.2 427.1 -227.4 400.2 -271.6 373.8C-315.7 347.3 -365.7 321.4 -384.3 279.2C-402.8 237 -390 178.7 -398.5 129.5C-407 80.2 -437 40.1 -467 0L0 0Z" fill="#2f9c30"></path><path d="M0 243.4C-25.2 237.9 -50.3 232.5 -72.5 223C-94.6 213.6 -113.7 200.1 -135.8 186.9C-157.8 173.7 -182.9 160.7 -192.1 139.6C-201.4 118.5 -195 89.4 -199.2 64.7C-203.5 40.1 -218.5 20.1 -233.5 0L0 0Z" fill="#1e8d21"></path></g><g transform="translate(0, 600)"><path d="M0 -486.7C55.5 -486.9 110.9 -487.1 148.6 -457.5C186.4 -427.9 206.4 -368.5 245.1 -337.4C283.8 -306.2 341.2 -303.2 377.8 -274.5C414.4 -245.8 430.1 -191.3 434.6 -141.2C439.2 -91.2 432.6 -45.6 426 0L0 0Z" fill="#2f9c30"></path><path d="M0 -243.4C27.7 -243.5 55.5 -243.5 74.3 -228.7C93.2 -213.9 103.2 -184.3 122.6 -168.7C141.9 -153.1 170.6 -151.6 188.9 -137.2C207.2 -122.9 215 -95.6 217.3 -70.6C219.6 -45.6 216.3 -22.8 213 0L0 0Z" fill="#1e8d21"></path></g></svg>