<svg id="visual" viewBox="0 0 960 540" width="960" height="540" xmlns="http://www.w3.org/2000/svg" xmlns:xlink="http://www.w3.org/1999/xlink" version="1.1"><path d="M0 152L22.8 150.7C45.7 149.3 91.3 146.7 137 143.8C182.7 141 228.3 138 274 145C319.7 152 365.3 169 411.2 178.5C457 188 503 190 548.8 187.3C594.7 184.7 640.3 177.3 686 170.8C731.7 164.3 777.3 158.7 823 162.8C868.7 167 914.3 181 937.2 188L960 195L960 0L937.2 0C914.3 0 868.7 0 823 0C777.3 0 731.7 0 686 0C640.3 0 594.7 0 548.8 0C503 0 457 0 411.2 0C365.3 0 319.7 0 274 0C228.3 0 182.7 0 137 0C91.3 0 45.7 0 22.8 0L0 0Z" fill="#f3f3f3"></path><path d="M0 108L22.8 117.2C45.7 126.3 91.3 144.7 137 152.2C182.7 159.7 228.3 156.3 274 156.2C319.7 156 365.3 159 411.2 158.2C457 157.3 503 152.7 548.8 144.8C594.7 137 640.3 126 686 124.2C731.7 122.3 777.3 129.7 823 128.7C868.7 127.7 914.3 118.3 937.2 113.7L960 109L960 0L937.2 0C914.3 0 868.7 0 823 0C777.3 0 731.7 0 686 0C640.3 0 594.7 0 548.8 0C503 0 457 0 411.2 0C365.3 0 319.7 0 274 0C228.3 0 182.7 0 137 0C91.3 0 45.7 0 22.8 0L0 0Z" fill="#e4ebf6"></path><path d="M0 86L22.8 86.3C45.7 86.7 91.3 87.3 137 90.5C182.7 93.7 228.3 99.3 274 98.8C319.7 98.3 365.3 91.7 411.2 94.8C457 98 503 111 548.8 115.3C594.7 119.7 640.3 115.3 686 107.7C731.7 100 777.3 89 823 92C868.7 95 914.3 112 937.2 120.5L960 129L960 0L937.2 0C914.3 0 868.7 0 823 0C777.3 0 731.7 0 686 0C640.3 0 594.7 0 548.8 0C503 0 457 0 411.2 0C365.3 0 319.7 0 274 0C228.3 0 182.7 0 137 0C91.3 0 45.7 0 22.8 0L0 0Z" fill="#d5e3f8"></path><path d="M0 67L22.8 70.2C45.7 73.3 91.3 79.7 137 79.8C182.7 80 228.3 74 274 69.7C319.7 65.3 365.3 62.7 411.2 65.2C457 67.7 503 75.3 548.8 82.8C594.7 90.3 640.3 97.7 686 101.3C731.7 105 777.3 105 823 104C868.7 103 914.3 101 937.2 100L960 99L960 0L937.2 0C914.3 0 868.7 0 823 0C777.3 0 731.7 0 686 0C640.3 0 594.7 0 548.8 0C503 0 457 0 411.2 0C365.3 0 319.7 0 274 0C228.3 0 182.7 0 137 0C91.3 0 45.7 0 22.8 0L0 0Z" fill="#c5dbfb"></path><path d="M0 39L22.8 39.7C45.7 40.3 91.3 41.7 137 40.7C182.7 39.7 228.3 36.3 274 35.5C319.7 34.7 365.3 36.3 411.2 34.8C457 33.3 503 28.7 548.8 26.2C594.7 23.7 640.3 23.3 686 28.7C731.7 34 777.3 45 823 46.5C868.7 48 914.3 40 937.2 36L960 32L960 0L937.2 0C914.3 0 868.7 0 823 0C777.3 0 731.7 0 686 0C640.3 0 594.7 0 548.8 0C503 0 457 0 411.2 0C365.3 0 319.7 0 274 0C228.3 0 182.7 0 137 0C91.3 0 45.7 0 22.8 0L0 0Z" fill="#b5d3fd"></path></svg>